<?xml version="1.0" standalone="no"?>
<!DOCTYPE svg PUBLIC "-//W3C//DTD SVG 20010904//EN"
 "http://www.w3.org/TR/2001/REC-SVG-20010904/DTD/svg10.dtd">
<svg version="1.0" xmlns="http://www.w3.org/2000/svg"
 width="260.000000pt" height="260.000000pt" viewBox="0 0 260.000000 260.000000"
 preserveAspectRatio="xMidYMid meet">
<metadata>
Created by potrace 1.11, written by Peter Selinger 2001-2013
</metadata>
<g transform="translate(0.000000,260.000000) scale(0.100000,-0.100000)"
fill="#000000" stroke="none">
<path d="M470 2047 c0 -3 194 -151 430 -328 237 -178 430 -326 430 -329 -1 -3
-40 -33 -88 -66 -48 -34 -220 -156 -382 -271 -337 -239 -329 -234 -590 -417
-188 -132 -268 -195 -185 -144 38 24 110 62 295 160 47 25 110 59 140 75 30
16 100 54 155 83 55 29 253 135 440 235 187 100 351 187 365 194 24 11 24 11
5 -4 -11 -9 -65 -50 -120 -91 -55 -41 -111 -84 -125 -94 -14 -10 -77 -57 -140
-104 -63 -46 -119 -88 -125 -93 -9 -8 -333 -252 -421 -318 -22 -16 -54 -40
-70 -53 l-29 -23 35 19 c39 21 157 84 295 157 50 26 113 60 140 75 28 15 100
53 160 85 124 65 202 106 425 225 85 46 187 100 225 120 181 96 215 115 215
120 0 3 -55 32 -121 65 -66 33 -122 63 -125 66 -2 4 68 60 156 125 88 66 170
127 183 136 124 94 441 328 470 348 20 14 37 29 37 34 0 5 -6 4 -12 -2 -13 -9
-63 -37 -263 -142 -55 -29 -122 -65 -150 -80 -27 -15 -97 -52 -155 -83 -58
-30 -136 -72 -175 -92 -38 -21 -116 -62 -173 -92 l-103 -54 -92 49 c-51 27
-137 73 -192 102 -55 29 -201 107 -325 173 -124 66 -263 140 -310 165 -47 25
-95 52 -107 60 -13 8 -23 12 -23 9z"/>
</g>
</svg>
